<mxfile host="app.diagrams.net" modified="2024-05-22T03:47:52.903Z" agent="Mozilla/5.0 (Windows NT 10.0; Win64; x64) AppleWebKit/537.36 (KHTML, like Gecko) Chrome/125.0.0.0 Safari/537.36 Edg/125.0.0.0" etag="4HhsD2cgMwvP6Hp8l2ES" version="24.4.4" type="device">
  <diagram name="Página-1" id="czEp0nsEyQwNd12v8ww8">
    <mxGraphModel dx="1580" dy="1067" grid="0" gridSize="10" guides="1" tooltips="1" connect="1" arrows="1" fold="1" page="0" pageScale="1" pageWidth="827" pageHeight="1169" math="0" shadow="0">
      <root>
        <mxCell id="0" />
        <mxCell id="1" parent="0" />
        <mxCell id="UuYc5vmtJZvsAIwb0GfW-1" value="Hoteles" style="swimlane;fontStyle=1;align=center;verticalAlign=top;childLayout=stackLayout;horizontal=1;startSize=26;horizontalStack=0;resizeParent=1;resizeParentMax=0;resizeLast=0;collapsible=1;marginBottom=0;whiteSpace=wrap;html=1;" vertex="1" parent="1">
          <mxGeometry x="-283" y="-85" width="226" height="197" as="geometry" />
        </mxCell>
        <mxCell id="UuYc5vmtJZvsAIwb0GfW-2" value="Dueño (String)&lt;div&gt;Categoría (String)&lt;/div&gt;&lt;div&gt;Año(Int)&lt;/div&gt;&lt;div&gt;Habitaciones (int)&lt;/div&gt;&lt;div&gt;Disponible 24/7 (Boolean)&lt;/div&gt;&lt;div&gt;&lt;br&gt;&lt;/div&gt;" style="text;strokeColor=none;fillColor=none;align=left;verticalAlign=top;spacingLeft=4;spacingRight=4;overflow=hidden;rotatable=0;points=[[0,0.5],[1,0.5]];portConstraint=eastwest;whiteSpace=wrap;html=1;" vertex="1" parent="UuYc5vmtJZvsAIwb0GfW-1">
          <mxGeometry y="26" width="226" height="96" as="geometry" />
        </mxCell>
        <mxCell id="UuYc5vmtJZvsAIwb0GfW-3" value="" style="line;strokeWidth=1;fillColor=none;align=left;verticalAlign=middle;spacingTop=-1;spacingLeft=3;spacingRight=3;rotatable=0;labelPosition=right;points=[];portConstraint=eastwest;strokeColor=inherit;" vertex="1" parent="UuYc5vmtJZvsAIwb0GfW-1">
          <mxGeometry y="122" width="226" height="12" as="geometry" />
        </mxCell>
        <mxCell id="UuYc5vmtJZvsAIwb0GfW-4" value="Alojar&lt;div&gt;Recreación&lt;/div&gt;&lt;div&gt;Entretenimiento&lt;/div&gt;" style="text;strokeColor=none;fillColor=none;align=left;verticalAlign=top;spacingLeft=4;spacingRight=4;overflow=hidden;rotatable=0;points=[[0,0.5],[1,0.5]];portConstraint=eastwest;whiteSpace=wrap;html=1;" vertex="1" parent="UuYc5vmtJZvsAIwb0GfW-1">
          <mxGeometry y="134" width="226" height="63" as="geometry" />
        </mxCell>
      </root>
    </mxGraphModel>
  </diagram>
</mxfile>
